<svg xmlns="http://www.w3.org/2000/svg" width="600" height="300" fill="none" viewBox="0 0 600 300"><g clip-path="url(#clip0_125_4)"><path fill="#2A55E5" d="m153.782 74.913 1.225-7.972a4.213 4.213 0 0 0-.99-3.465 4.265 4.265 0 0 0-3.283-1.512h-48.411a4.315 4.315 0 0 0-4.273 3.648l-13.002 82.204c-.183 1.25.157 2.528.99 3.492a4.275 4.275 0 0 0 3.257 1.537h11.178c2.137 0 3.908-1.537 4.273-3.648l5.029-31.892h27.697a4.309 4.309 0 0 0 4.247-3.648l1.146-6.956c.182-1.251-.156-2.527-.99-3.491a4.296 4.296 0 0 0-3.309-1.538h-26.134l3.414-23.085h33.637c2.189-.026 3.987-1.537 4.299-3.674Zm253.753 27.437-.34-.131c-2.995-.912-6.485-1.406-10.315-1.406-6.23 0-10.97 2.527-14.07 7.53-3.025 4.924-4.59 10.475-4.59 16.467 0 3.778.655 6.956 1.955 9.431 1.355 2.553 3.285 3.883 5.735 3.883 2.735 0 5.885-1.773 9.405-5.238 3.44-3.387 6.59-7.45 9.3-12.036l2.92-18.5Zm20.325-9.458-8.885 56.383a4.297 4.297 0 0 1-4.275 3.649h-6.59a4.249 4.249 0 0 1-3.105-1.329 4.275 4.275 0 0 1-1.195-3.153l.26-6.984-.78.861c-.03.026-2.555 2.84-5.475 5.107-4.35 3.387-9.17 5.21-9.69 5.419-2.685.99-5.575 1.484-8.6 1.484-6.645 0-11.595-2.371-15.215-7.217-3.595-4.82-5.395-11.228-5.395-18.993 0-4.038.415-8.025 1.2-11.829.805-3.804 2.215-7.661 4.22-11.491 2.005-3.804 4.535-7.191 7.505-10.031 2.945-2.84 6.85-5.16 11.565-6.931 4.72-1.746 10.11-2.632 15.975-2.632 7.215 0 15.635.913 25.015 2.763 2.315.468 3.83 2.605 3.465 4.924Zm47.21-7.035c-4.43 1.042-8.755 3.752-11.62 5.862-3.255 2.397-7.92 7.479-8 7.53l-.78.861.415-8.965a4.315 4.315 0 0 0-1.2-3.204c-.805-.86-1.95-1.328-3.125-1.328h-6.645a4.287 4.287 0 0 0-4.27 3.647l-9.095 57.66a4.396 4.396 0 0 0 .99 3.466 4.266 4.266 0 0 0 3.285 1.511h10.265a4.31 4.31 0 0 0 4.27-3.647l4.795-30.694c2.735-3.857 6.28-7.165 10.58-9.875 3.205-2.006 6.485-3.309 9.77-3.804a4.32 4.32 0 0 0 3.57-3.464l1.98-10.554a4.225 4.225 0 0 0-1.25-3.908c-.99-1.016-2.5-1.407-3.935-1.094Zm-205.995 28.87c0-3.804-.675-6.984-1.98-9.433-1.355-2.554-3.255-3.856-5.705-3.856-2.735 0-5.915 1.747-9.405 5.238-3.465 3.413-6.595 7.45-9.33 12.036l-2.916 18.475.366.104c2.995.938 6.46 1.406 10.315 1.406 6.255 0 10.995-2.527 14.07-7.529 3.025-4.899 4.585-10.423 4.585-16.441Zm13.89-22.279c3.57 4.82 5.395 11.231 5.395 18.969 0 5.107-.705 10.109-2.085 14.851-1.385 4.742-3.57 9.354-6.515 13.732-2.92 4.325-7.14 7.868-12.56 10.473-5.445 2.632-11.905 3.988-19.175 3.988-2.865 0-6.49-.286-10.762-.885l-.442-.053-.782 7.816c-.026.079-.026.156-.026.26l-2.267 13.732c-.365 2.084-2.137 3.596-4.247 3.596h-10.188a4.211 4.211 0 0 1-3.257-1.511 4.246 4.246 0 0 1-.99-3.493l13.289-83.663c.338-2.11 2.136-3.622 4.273-3.622h6.592a4.38 4.38 0 0 1 3.127 1.303c.805.86 1.25 2.006 1.2 3.152l-.265 7.088.785-.99c.075-.078 6.355-7.713 15.97-10.735 2.66-.834 5.21-1.25 7.79-1.25 6.54.026 11.52 2.37 15.14 7.242Zm237.7-5.835h-8.025l1.775-11.465a4.385 4.385 0 0 0-.99-3.465 4.311 4.311 0 0 0-3.285-1.511h-8.105c-1.9 0-3.595 1.25-4.14 3.1l-3.935 13.34h-4.43a4.266 4.266 0 0 0-4.245 3.623l-1.015 6.2c-.185 1.251.13 2.528.99 3.492a4.254 4.254 0 0 0 3.28 1.511h2.685l-4.795 30.693a34.675 34.675 0 0 0-.52 6.045c0 5.445 1.43 9.406 4.405 12.115 2.915 2.658 7.37 4.038 13.285 4.038 3.545 0 8.545-1.484 9.145-1.693.47-.182 1.355-.468 1.46-.52a8.16 8.16 0 0 0 .52-.236 4.26 4.26 0 0 0 2.215-3.282l.755-6.357c.13-1.329-.335-2.684-1.325-3.596a6.136 6.136 0 0 0-.915-.703c-.235-.104-.44-.209-.675-.287-.16-.052-.55-.131-2.085-.105-.365 0-.755.027-1.145.027-.705 0-1.15-.027-1.385-.079-.6-.104-2.085-.417-2.84-1.094-.365-.313-1.485-1.302-1.485-4.95 0-.365.03-.912.13-1.694l4.405-28.295h9.095c2.055 0 3.855-1.46 4.245-3.466l1.2-6.202a4.21 4.21 0 0 0-.915-3.569c-.805-1.042-2.03-1.615-3.335-1.615ZM357.35 88.358a4.327 4.327 0 0 0-3.465-1.745H343.15a4.36 4.36 0 0 0-4.14 3.075c-.915 3.126-2.63 6.72-5.16 10.733-3.515 5.655-6.41 9.147-8.86 10.71l-.39.182c-.86.443-2.215 1.094-6.955 1.928l-.6.103 7.425-46.403c.185-1.25-.155-2.527-.99-3.465a4.268 4.268 0 0 0-3.255-1.538H309.96a4.316 4.316 0 0 0-4.275 3.648l-13.055 82.361a4.27 4.27 0 0 0 .965 3.466 4.329 4.329 0 0 0 3.285 1.537h10.265a4.31 4.31 0 0 0 4.27-3.648l3.365-21.471h6.435l8.855 22.383a4.298 4.298 0 0 0 4.015 2.736h11.15a4.332 4.332 0 0 0 4.325-4.326c0-.573-.13-1.172-.365-1.719l-10.135-26.134.21-.182c4.195-3.778 8.495-9.146 12.795-15.894 2.785-4.377 4.765-8.598 5.94-12.48a4.31 4.31 0 0 0-.655-3.857Zm-148.643-7.426c4.273 0 7.478-1.094 9.51-3.309 2.058-2.24 3.075-5.002 3.075-8.493 0-2.71-.756-4.742-2.293-6.097-1.512-1.355-3.856-2.033-6.983-2.033-4.273 0-7.478 1.12-9.484 3.31-2.085 2.24-3.101 5.028-3.101 8.52 0 2.709.782 4.742 2.293 6.07 1.563 1.381 3.83 2.032 6.983 2.032Zm3.465 5.68h-10.161c-2.137 0-3.909 1.512-4.273 3.623l-9.094 57.685c-.182 1.251.157 2.528.99 3.466a4.25 4.25 0 0 0 3.257 1.511h10.162c2.136 0 3.908-1.537 4.273-3.647l9.093-57.66c.183-1.251-.156-2.528-.99-3.466a4.296 4.296 0 0 0-3.257-1.511Zm-29.39-23.136c.808.964 1.198 2.215.99 3.465l-10.005 63.836c-.105 1.094-.131 1.77-.131 2.213 0 2.137.417 3.623 1.225 4.379.756.703 2.423 1.093 2.71 1.145.912.131 1.771.6 2.423 1.278a4.454 4.454 0 0 1 1.198 3.412l-.573 5.732c-.13 1.225-.651 2.241-1.407 2.788-.703.469-1.563.913-2.657 1.329-1.095.417-4.169 1.304-6.306 1.304-5.393 0-9.562-1.251-12.402-3.727-2.814-2.449-4.247-6.019-4.247-10.63 0-1.251.13-2.631.391-4.117.078-.625 10.865-69.489 10.995-70.244a4.316 4.316 0 0 1 4.273-3.65h10.266c1.251-.025 2.423.523 3.257 1.487Z"/><path fill="url(#paint0_linear_125_4)" d="M478.39 198.621s6.445 3.203 9.625 4.563c3.09 1.32 3.44 6.268.04 7.939-3.405 1.671-4.345 1.943-4.345 1.943s.535-1.386.465-2.726c-.22-2.387-7.25-4.324-11.91-5.471 0 0-3.575-11.262-5.195-14.399-1.625-3.157-4.92-4.47-4.92-4.47l7.79.106s2.68-.133 3.87 2.752c1.185 2.898 4.58 9.763 4.58 9.763Z"/><path fill="url(#paint1_linear_125_4)" d="M477.94 223.292s-3.16 6.393-4.55 9.663c-1.32 3.104-6.345 3.455-8.01.04-1.665-3.416-1.835-4.02-1.835-4.02s1.005.199 2.605.126c2.38-.218 4.42-7.275 5.565-11.951 0 0 11.21-3.594 14.345-5.213 3.145-1.631 4.445-4.941 4.445-4.941l-.105 8.987s.135 1.532-2.74 2.726c-2.885 1.18-9.72 4.583-9.72 4.583Z"/><path fill="url(#paint2_linear_125_4)" d="M453.14 222.841s-6.41-3.184-9.625-4.563c-3.095-1.32-3.445-6.274-.04-7.939 3.4-1.671 4.77-1.976 4.77-1.976s-.885 1.419-.67 3.018c.225 2.394 7.035 4.065 11.68 5.212 0 0 3.71 11.195 5.195 14.399 1.81 3.899 4.81 4.497 4.81 4.497l-8.835-.133s-1.53.132-2.72-2.753c-1.175-2.898-4.565-9.762-4.565-9.762Z"/><path fill="url(#paint3_linear_125_4)" d="M453.67 198.128s3.17-6.427 4.545-9.663c1.315-3.104 6.245-3.449 7.91-.04 1.665 3.415 1.825 4.032 1.825 4.032s-1.255.02-2.585.093c-2.385.225-4.325 7.057-5.465 11.726 0 0-11.18 3.667-14.345 5.212-4.355 2.123-4.52 4.842-4.52 4.842l.18-8.881s-.135-1.531 2.74-2.725c2.875-1.194 9.715-4.596 9.715-4.596Z"/><path fill="#9E9E9E" d="M109.436 229.228H80l6.465-40.806H115.9l-1.212 7.907H94.603l-1.328 8.542h17.373l-1.212 7.561H92.063l-1.385 8.889h20.028l-1.27 7.907ZM143.871 229.226h-10.159l-4.156-8.6-7.272 8.6h-9.581l12.929-15.18-7.735-15.237h10.217l4.04 8.946 7.388-8.946h9.292l-12.929 15.064 7.966 15.353ZM170.369 198.176c3.04 0 5.387 1.116 7.042 3.348 1.654 2.231 2.482 5.137 2.482 8.715 0 2.347-.327 4.618-.981 6.811-.616 2.155-1.597 4.232-2.944 6.233-1.346 2.001-3.271 3.617-5.772 4.849-2.501 1.193-5.425 1.789-8.773 1.789-1.308 0-2.944-.135-4.906-.404l-.346 3.405-1.328 8.081h-8.946l6.695-42.192h7.042l-.231 6.464c2.847-4.733 6.503-7.099 10.966-7.099Zm-2.886 7.734c-1.192 0-2.577.77-4.155 2.309-1.539 1.539-2.925 3.348-4.156 5.425l-1.27 8.139c1.347.423 2.886.635 4.618.635 2.77 0 4.829-1.097 6.175-3.29 1.386-2.232 2.078-4.695 2.078-7.388 0-1.693-.288-3.079-.865-4.156-.578-1.116-1.386-1.674-2.425-1.674ZM198.601 221.782l-.693 6.81a17.4 17.4 0 0 1-6.522 1.27c-2.501 0-4.425-.577-5.772-1.731-1.308-1.155-1.962-2.809-1.962-4.964 0-.577.058-1.212.173-1.905l5.368-34.227h9.004l-5.022 31.976c-.038.462-.057.789-.057.981 0 .924.154 1.54.461 1.847.347.308 1.02.462 2.021.462.808 0 1.808-.173 3.001-.519ZM215.659 229.805c-4.156-.076-7.388-1.192-9.697-3.347-2.309-2.155-3.463-5.176-3.463-9.062 0-5.695 1.616-10.312 4.848-13.852 3.271-3.579 7.619-5.368 13.045-5.368 4.309 0 7.638 1.077 9.985 3.232 2.386 2.117 3.578 5.156 3.578 9.12 0 5.887-1.616 10.581-4.848 14.083-3.232 3.463-7.715 5.194-13.448 5.194Zm.981-7.503c2.54 0 4.56-.943 6.06-2.828 1.501-1.924 2.251-4.541 2.251-7.85 0-4.001-1.712-6.002-5.137-6.002-2.501 0-4.521.942-6.06 2.828-1.539 1.885-2.309 4.521-2.309 7.907 0 2.04.424 3.54 1.27 4.502.885.924 2.193 1.405 3.925 1.443ZM236.725 229.228l4.79-30.417h7.1l-.345 7.33c3.115-5.31 7-7.965 11.66-7.965h.515l-1.73 9.177c-1.96 0-3.905.616-5.83 1.847-1.925 1.193-3.5 2.655-4.73 4.387l-2.425 15.641h-9.005ZM290.28 207.351c-.31 7.08-5.6 10.62-15.875 10.62-1.46 0-2.885-.057-4.27-.173.19 1.77.81 3.04 1.845 3.81 1.08.769 2.905 1.154 5.485 1.154 3.04 0 6.175-.558 9.41-1.674l-1.385 7.33c-3.235 1.001-6.7 1.501-10.39 1.501-5.16 0-8.835-1.097-11.025-3.29-2.155-2.193-3.235-5.368-3.235-9.523 0-5.311 1.58-9.774 4.735-13.391 3.195-3.617 7.485-5.426 12.87-5.426 4.04 0 7.025.828 8.945 2.482 1.925 1.616 2.89 3.81 2.89 6.58Zm-19.685 4.791c.385.077 1 .115 1.85.115 5.885 0 8.83-1.366 8.83-4.098 0-.885-.29-1.597-.865-2.135-.58-.578-1.445-.866-2.6-.866-1.845 0-3.385.616-4.615 1.847-1.195 1.231-2.06 2.943-2.6 5.137Z"/><path fill="#FFC200" d="M315.615 229.228h-9.405l6.465-40.806h16.735c5.12 0 8.715.942 10.795 2.828 2.115 1.885 3.175 4.54 3.175 7.965 0 1.731-.155 3.348-.46 4.848-.31 1.462-.885 2.963-1.735 4.502a12.46 12.46 0 0 1-3.23 3.867c-1.31 1.039-3.06 1.905-5.255 2.598-2.19.654-4.73.981-7.615.981h-7.33l-2.14 13.217Zm3.29-20.663h6.525c5.465 0 8.195-2.597 8.195-7.792 0-1.616-.46-2.828-1.385-3.636-.925-.846-2.52-1.27-4.79-1.27h-6.525l-2.02 12.698ZM359.535 221.782l-.69 6.81a17.439 17.439 0 0 1-6.525 1.27c-2.5 0-4.425-.577-5.77-1.731-1.31-1.155-1.965-2.809-1.965-4.964 0-.577.06-1.212.175-1.905l5.365-34.227h9.005l-5.02 31.976c-.04.462-.06.789-.06.981 0 .924.155 1.54.465 1.847.345.308 1.02.462 2.02.462.805 0 1.805-.173 3-.519ZM395.52 198.809l-4.85 30.417h-7.04l.23-6.464c-3.195 4.733-7.29 7.099-12.295 7.099-2.69 0-4.71-.75-6.06-2.251-1.345-1.5-2.02-3.501-2.02-6.002 0-1.039.08-1.963.23-2.771l3.235-20.028h8.945l-2.825 17.777a9.071 9.071 0 0 0-.175 1.847c0 2.27.81 3.405 2.425 3.405 1.27 0 2.69-.711 4.27-2.135 1.58-1.424 3.06-3.213 4.445-5.368l2.48-15.526h9.005ZM396.8 228.363l1.56-7.504c.27.308 1.48.693 3.635 1.155 2.155.423 4.175.634 6.06.634 3.89 0 5.83-.962 5.83-2.885 0-.693-.5-1.251-1.5-1.674-.96-.424-2.155-.77-3.58-1.039a45.639 45.639 0 0 1-4.21-1.155c-1.385-.5-2.58-1.327-3.58-2.481-.96-1.193-1.445-2.694-1.445-4.502 0-3.464 1.255-6.119 3.755-7.966 2.5-1.847 6.27-2.77 11.31-2.77 1.655 0 3.27.115 4.85.346 1.575.193 2.77.404 3.58.635.845.231 1.385.423 1.615.577l-1.5 7.273c-.655-.423-1.85-.789-3.58-1.097a28.646 28.646 0 0 0-5.02-.462c-4.005 0-6.005.924-6.005 2.771 0 .654.48 1.174 1.445 1.558 1 .385 2.19.731 3.575 1.039 1.39.27 2.775.654 4.16 1.155 1.42.461 2.615 1.289 3.575 2.481 1 1.155 1.5 2.636 1.5 4.445 0 3.732-1.345 6.483-4.04 8.253-2.655 1.77-6.31 2.655-10.965 2.655-1.77 0-3.56-.115-5.365-.346-1.81-.231-3.175-.442-4.1-.635-.885-.231-1.405-.385-1.56-.461Z"/></g><defs><linearGradient id="paint0_linear_125_4" x1="462.315" x2="488.045" y1="185.832" y2="211.47" gradientUnits="userSpaceOnUse"><stop offset=".041" stop-color="#FFF300"/><stop offset=".273" stop-color="#FFF300"/><stop offset=".502" stop-color="#FFE500"/><stop offset=".813" stop-color="#F2A930"/></linearGradient><linearGradient id="paint1_linear_125_4" x1="465.05" x2="490.825" y1="232.998" y2="207.316" gradientUnits="userSpaceOnUse"><stop offset=".187" stop-color="#F2A930"/><stop offset=".498" stop-color="#FFE500"/><stop offset=".727" stop-color="#FFF300"/><stop offset=".959" stop-color="#FFF300"/></linearGradient><linearGradient id="paint2_linear_125_4" x1="443.515" x2="469.2" y1="209.957" y2="235.549" gradientUnits="userSpaceOnUse"><stop offset=".187" stop-color="#F2A930"/><stop offset=".498" stop-color="#FFE500"/><stop offset=".727" stop-color="#FFF300"/><stop offset=".959" stop-color="#FFF300"/></linearGradient><linearGradient id="paint3_linear_125_4" x1="440.895" x2="466.61" y1="214.192" y2="188.572" gradientUnits="userSpaceOnUse"><stop offset=".041" stop-color="#FFF300"/><stop offset=".273" stop-color="#FFF300"/><stop offset=".502" stop-color="#FFE500"/><stop offset=".813" stop-color="#F2A930"/></linearGradient><clipPath id="clip0_125_4"><path fill="#fff" d="M0 0h600v300H0z"/></clipPath></defs></svg>